<svg width="56" height="55" viewBox="0 0 56 55" fill="none" xmlns="http://www.w3.org/2000/svg">
<path fill-rule="evenodd" clip-rule="evenodd" d="M8.71111 34.9668H8.08889C5.94347 34.9668 3.88516 34.1156 2.36942 32.5973C0.8512 31.0816 0 29.0233 0 26.8779V8.2112C0 6.06578 0.8512 4.00747 2.36942 2.49174C3.88516 0.973514 5.94347 0.122314 8.08889 0.122314H37.9556C40.101 0.122314 42.1593 0.973514 43.675 2.49174C45.1932 4.00747 46.0444 6.06578 46.0444 8.2112V26.8779C46.0444 29.0233 45.1932 31.0816 43.675 32.5973C42.1593 34.1156 40.101 34.9668 37.9556 34.9668H22.7236C22.5717 34.9668 22.4249 35.0215 22.3104 35.1236L11.8172 44.4519C11.2697 44.9397 10.4832 45.0592 9.81369 44.758C9.14169 44.4569 8.71111 43.7899 8.71111 43.0556V34.9668ZM42.3111 8.2112C42.3111 7.05636 41.8532 5.9488 41.0343 5.13245C40.218 4.3136 39.1104 3.85565 37.9556 3.85565H8.08889C6.93404 3.85565 5.82649 4.3136 5.01013 5.13245C4.19129 5.9488 3.73333 7.05636 3.73333 8.2112V26.8779C3.73333 28.0327 4.19129 29.1403 5.01013 29.9566C5.82649 30.7755 6.93404 31.2334 8.08889 31.2334H9.33333C11.0507 31.2334 12.4444 32.6272 12.4444 34.3445V38.8992L19.8315 32.3335C20.6279 31.6242 21.6583 31.2334 22.7236 31.2334H37.9556C39.1104 31.2334 40.218 30.7755 41.0343 29.9566C41.8532 29.1403 42.3111 28.0327 42.3111 26.8779V8.2112Z" fill="url(#paint0_linear_46_554)"/>
<path fill-rule="evenodd" clip-rule="evenodd" d="M47.289 44.9223V53.0112C47.289 53.7454 46.8585 54.4125 46.1865 54.7136C45.5169 55.0148 44.7305 54.8953 44.1829 54.4075L33.6897 45.0791C33.5753 44.9771 33.4284 44.9223 33.2766 44.9223H19.289C18.2586 44.9223 17.4224 44.0861 17.4224 43.0557C17.4224 42.0253 18.2586 41.189 19.289 41.189H33.2766C34.3418 41.189 35.3722 41.5797 36.1687 42.2891L43.5557 48.8548V44.3001C43.5557 42.5828 44.9495 41.189 46.6668 41.189H47.9113C49.0661 41.189 50.1737 40.731 50.99 39.9122C51.8089 39.0958 52.2668 37.9883 52.2668 36.8334V18.1668C52.2668 15.7625 50.318 13.8112 47.9113 13.8112H44.1779C43.1475 13.8112 42.3113 12.9749 42.3113 11.9445C42.3113 10.9141 43.1475 10.0779 44.1779 10.0779H47.9113C52.3788 10.0779 56.0001 13.6992 56.0001 18.1668V36.8334C56.0001 38.9789 55.1489 41.0372 53.6307 42.5529C52.115 44.0711 50.0567 44.9223 47.9113 44.9223H47.289Z" fill="url(#paint1_linear_46_554)"/>
<path fill-rule="evenodd" clip-rule="evenodd" d="M13.0669 15.0556C12.0365 15.0556 11.2002 14.2193 11.2002 13.1889C11.2002 12.1585 12.0365 11.3223 13.0669 11.3223H32.978C34.0084 11.3223 34.8446 12.1585 34.8446 13.1889C34.8446 14.2193 34.0084 15.0556 32.978 15.0556H13.0669Z" fill="url(#paint2_linear_46_554)"/>
<path fill-rule="evenodd" clip-rule="evenodd" d="M13.0669 22.5222C12.0365 22.5222 11.2002 21.6859 11.2002 20.6555C11.2002 19.6251 12.0365 18.7888 13.0669 18.7888H25.5113C26.5417 18.7888 27.378 19.6251 27.378 20.6555C27.378 21.6859 26.5417 22.5222 25.5113 22.5222H13.0669Z" fill="url(#paint3_linear_46_554)"/>
<defs>
<linearGradient id="paint0_linear_46_554" x1="-2.10097e-06" y1="22.8895" x2="45.9188" y2="20.4871" gradientUnits="userSpaceOnUse">
<stop stop-color="#CC0087"/>
<stop offset="1" stop-color="#4441DC"/>
</linearGradient>
<linearGradient id="paint1_linear_46_554" x1="17.4224" y1="32.845" x2="55.9262" y2="31.1572" gradientUnits="userSpaceOnUse">
<stop stop-color="#CC0087"/>
<stop offset="1" stop-color="#4441DC"/>
</linearGradient>
<linearGradient id="paint2_linear_46_554" x1="11.2002" y1="13.2195" x2="32.6185" y2="6.31446" gradientUnits="userSpaceOnUse">
<stop stop-color="#CC0087"/>
<stop offset="1" stop-color="#4441DC"/>
</linearGradient>
<linearGradient id="paint3_linear_46_554" x1="11.2002" y1="20.6861" x2="26.6273" y2="17.2831" gradientUnits="userSpaceOnUse">
<stop stop-color="#CC0087"/>
<stop offset="1" stop-color="#4441DC"/>
</linearGradient>
</defs>
</svg>
