<svg width="56" height="47" viewBox="0 0 56 47" fill="none" xmlns="http://www.w3.org/2000/svg">
<path d="M28.6403 0.444824C13.4863 0.444824 1.16268 9.93817 1.16268 21.6132C1.16268 25.7407 2.69577 29.6914 5.52608 33.1114C4.40575 35.2341 2.8137 37.8285 0.985785 39.9513C-0.134548 41.2485 -0.311442 43.0764 0.514066 44.5505C1.22164 45.7888 2.51887 46.5553 3.93403 46.5553C4.16989 46.5553 4.40575 46.5553 4.70057 46.4964C10.3022 45.435 15.668 43.3123 19.3239 41.5433C22.2721 42.3688 25.3972 42.7816 28.5813 42.7816C43.7353 42.7816 56 33.2883 56 21.6132C56 9.93817 43.7353 0.444824 28.6403 0.444824ZM28.6403 39.0668C25.5741 39.0668 22.6259 38.6541 19.7956 37.7696C19.3239 37.6516 18.8521 37.6516 18.4394 37.8875C14.9605 39.5975 9.65362 41.7792 4.11092 42.7816C4.05196 42.7816 3.99299 42.7816 3.87506 42.6637C3.8161 42.4868 3.87506 42.4278 3.93403 42.3688C6.35159 39.5975 8.29743 36.1186 9.59466 33.642C9.94844 32.9345 9.83051 32.05 9.29983 31.5193C6.52848 28.5711 5.05436 25.1511 5.05436 21.6132C5.05436 12.0019 15.668 4.15961 28.7582 4.15961C41.8484 4.15961 52.4621 12.0019 52.4621 21.6132C52.4621 31.2245 41.6715 39.0668 28.6403 39.0668Z" fill="url(#paint0_linear_46_528)"/>
<path d="M21.9771 13.4761C20.7388 13.4761 19.6774 13.9478 18.734 14.8912C17.7906 15.8347 17.3188 16.8371 17.3188 18.0753C17.3188 19.1957 17.7316 20.1981 18.4392 21.1415C19.2057 22.0849 20.444 22.2618 21.5054 22.3208C21.3285 23.7949 20.503 25.328 19.6774 26.3894C19.5595 26.5663 19.4416 26.7432 19.2647 26.9201C19.0288 27.1559 19.0288 27.5687 19.2647 27.8045L20.9747 29.6324C21.2105 29.9273 21.6822 29.8683 21.9181 29.6324C22.6257 28.8069 23.3333 27.9225 23.9819 26.9201C25.6919 24.2666 26.5174 21.5543 26.5174 18.9008C26.5174 17.3088 26.0456 16.0705 25.1022 15.0681C24.2767 14.0068 23.2153 13.4761 21.9771 13.4761Z" fill="url(#paint1_linear_46_528)"/>
<path d="M35.2442 13.4761C34.0059 13.4761 32.9445 13.9478 32.0011 14.8912C31.0577 15.8347 30.5859 16.8371 30.5859 18.0753C30.5859 19.1957 30.9987 20.1981 31.7063 21.1415C32.4728 22.0849 33.7111 22.2618 34.7724 22.3208C34.5955 23.7949 33.77 25.328 32.9445 26.3894C32.8266 26.5663 32.7087 26.7432 32.5318 26.9201C32.2959 27.1559 32.2959 27.5687 32.5318 27.8045L34.2418 29.6324C34.4776 29.9273 34.9493 29.8683 35.1852 29.6324C35.8928 28.8069 36.6004 27.9225 37.249 26.9201C38.9589 24.2666 39.7845 21.5543 39.7845 18.9008C39.7845 17.3088 39.3127 16.0705 38.3693 15.0681C37.5438 14.0068 36.4824 13.4761 35.2442 13.4761Z" fill="url(#paint2_linear_46_528)"/>
<defs>
<linearGradient id="paint0_linear_46_528" x1="-2.55524e-06" y1="23.878" x2="55.7868" y2="20.4292" gradientUnits="userSpaceOnUse">
<stop stop-color="#CC0087"/>
<stop offset="1" stop-color="#4441DC"/>
</linearGradient>
<linearGradient id="paint1_linear_46_528" x1="17.3188" y1="21.7881" x2="26.5098" y2="21.525" gradientUnits="userSpaceOnUse">
<stop stop-color="#CC0087"/>
<stop offset="1" stop-color="#4441DC"/>
</linearGradient>
<linearGradient id="paint2_linear_46_528" x1="30.5859" y1="21.7881" x2="39.7769" y2="21.525" gradientUnits="userSpaceOnUse">
<stop stop-color="#CC0087"/>
<stop offset="1" stop-color="#4441DC"/>
</linearGradient>
</defs>
</svg>
