<svg width="32" height="32" viewBox="0 0 32 32" fill="none" xmlns="http://www.w3.org/2000/svg">
<g clip-path="url(#clip0_46_477)">
<path fill-rule="evenodd" clip-rule="evenodd" d="M9.88816 4.00009C9.5211 4.84113 9.33224 5.7491 9.3335 6.66675C9.3335 7.374 9.61445 8.05227 10.1145 8.55237C10.6146 9.05247 11.2929 9.33342 12.0002 9.33342H20.0002C20.7074 9.33342 21.3857 9.05247 21.8858 8.55237C22.3859 8.05227 22.6668 7.374 22.6668 6.66675C22.6668 5.71875 22.4695 4.81609 22.1122 4.00009H24.0002C24.7074 4.00009 25.3857 4.28104 25.8858 4.78113C26.3859 5.28123 26.6668 5.95951 26.6668 6.66675V26.6668C26.6668 27.374 26.3859 28.0523 25.8858 28.5524C25.3857 29.0525 24.7074 29.3334 24.0002 29.3334H8.00016C7.29292 29.3334 6.61464 29.0525 6.11454 28.5524C5.61445 28.0523 5.3335 27.374 5.3335 26.6668V6.66675C5.3335 5.95951 5.61445 5.28123 6.11454 4.78113C6.61464 4.28104 7.29292 4.00009 8.00016 4.00009H9.88816ZM16.0002 18.6668H12.0002C11.6465 18.6668 11.3074 18.8072 11.0574 19.0573C10.8073 19.3073 10.6668 19.6465 10.6668 20.0001C10.6668 20.3537 10.8073 20.6928 11.0574 20.9429C11.3074 21.1929 11.6465 21.3334 12.0002 21.3334H16.0002C16.3538 21.3334 16.6929 21.1929 16.943 20.9429C17.193 20.6928 17.3335 20.3537 17.3335 20.0001C17.3335 19.6465 17.193 19.3073 16.943 19.0573C16.6929 18.8072 16.3538 18.6668 16.0002 18.6668ZM20.0002 13.3334H12.0002C11.6603 13.3338 11.3335 13.4639 11.0863 13.6972C10.8392 13.9305 10.6905 14.2494 10.6706 14.5886C10.6507 14.9279 10.7611 15.2619 10.9792 15.5225C11.1973 15.7831 11.5067 15.9506 11.8442 15.9908L12.0002 16.0001H20.0002C20.3538 16.0001 20.6929 15.8596 20.943 15.6096C21.193 15.3595 21.3335 15.0204 21.3335 14.6668C21.3335 14.3131 21.193 13.974 20.943 13.7239C20.6929 13.4739 20.3538 13.3334 20.0002 13.3334ZM16.0002 2.66675C16.5631 2.66592 17.1198 2.78431 17.6336 3.01412C18.1475 3.24393 18.6069 3.57996 18.9815 4.00009C19.5522 4.63742 19.9202 5.45742 19.9882 6.36275L20.0002 6.66675H12.0002C12.0002 5.70009 12.3428 4.81342 12.9135 4.12275L13.0188 4.00009C13.7522 3.18142 14.8162 2.66675 16.0002 2.66675Z" fill="url(#paint0_linear_46_477)"/>
</g>
<defs>
<linearGradient id="paint0_linear_46_477" x1="5.3335" y1="16.2186" x2="26.6315" y2="15.3513" gradientUnits="userSpaceOnUse">
<stop stop-color="#CC0087"/>
<stop offset="1" stop-color="#4441DC"/>
</linearGradient>
<clipPath id="clip0_46_477">
<rect width="32" height="32" fill="white"/>
</clipPath>
</defs>
</svg>
