<svg width="56" height="57" viewBox="0 0 56 57" fill="none" xmlns="http://www.w3.org/2000/svg">
<path d="M28 0.5C22.4621 0.5 17.0486 2.14217 12.444 5.21885C7.83947 8.29553 4.25064 12.6685 2.13139 17.7849C0.0121319 22.9012 -0.542361 28.5311 0.538025 33.9625C1.61841 39.394 4.28515 44.3831 8.20102 48.299C12.1169 52.2148 17.106 54.8816 22.5375 55.962C27.9689 57.0424 33.5988 56.4879 38.7151 54.3686C43.8315 52.2494 48.2045 48.6605 51.2811 44.056C54.3578 39.4514 56 34.0379 56 28.5C55.9904 21.0769 53.0374 13.9605 47.7884 8.71158C42.5395 3.46264 35.4231 0.509575 28 0.5ZM28 54.3289C22.8915 54.3289 17.8978 52.814 13.6502 49.9759C9.4027 47.1378 6.09215 43.1039 4.13722 38.3843C2.1823 33.6647 1.6708 28.4713 2.66741 23.461C3.66402 18.4507 6.12399 13.8484 9.73622 10.2362C13.3485 6.62397 17.9507 4.16401 22.961 3.1674C27.9714 2.17078 33.1647 2.68228 37.8843 4.63721C42.6039 6.59214 46.6378 9.90269 49.4759 14.1502C52.3141 18.3978 53.8289 23.3915 53.8289 28.5C53.8212 35.3479 51.0975 41.9131 46.2553 46.7553C41.4131 51.5975 34.8479 54.3212 28 54.3289Z" fill="url(#paint0_linear_46_509)"/>
<path d="M18.0202 25.3086C18.7079 25.31 19.3805 25.1073 19.9529 24.7262C20.5253 24.345 20.9716 23.8026 21.2354 23.1675C21.4992 22.5325 21.5687 21.8334 21.4348 21.1589C21.301 20.4844 20.97 19.8648 20.4838 19.3785C19.9975 18.8923 19.3779 18.5613 18.7034 18.4275C18.0289 18.2937 17.3298 18.3631 16.6948 18.6269C16.0597 18.8907 15.5173 19.3371 15.1361 19.9094C14.755 20.4818 14.5523 21.1544 14.5537 21.8421C14.5537 22.7615 14.9189 23.6432 15.569 24.2933C16.2191 24.9434 17.1009 25.3086 18.0202 25.3086Z" fill="url(#paint1_linear_46_509)"/>
<path d="M37.9796 25.3086C38.667 25.3086 39.3389 25.1047 39.9103 24.7227C40.4817 24.3407 40.927 23.7977 41.1897 23.1625C41.4524 22.5274 41.5207 21.8285 41.3861 21.1545C41.2515 20.4804 40.9199 19.8615 40.4334 19.376C39.9468 18.8904 39.3272 18.5602 38.6529 18.427C37.9786 18.2937 37.2799 18.3636 36.6453 18.6276C36.0106 18.8916 35.4686 19.338 35.0878 19.9102C34.707 20.4824 34.5044 21.1547 34.5059 21.8421C34.5059 22.2979 34.5958 22.7493 34.7704 23.1703C34.9451 23.5914 35.2011 23.9739 35.5237 24.2959C35.8464 24.6178 36.2294 24.873 36.6508 25.0468C37.0722 25.2206 37.5238 25.3096 37.9796 25.3086Z" fill="url(#paint2_linear_46_509)"/>
<path d="M43.1256 36.2437C42.8807 35.7954 42.5237 35.4183 42.0894 35.1492C41.6552 34.8801 41.1585 34.7283 40.6481 34.7087C40.1376 34.689 39.6308 34.8021 39.1771 35.0369C38.7234 35.2717 38.3384 35.6202 38.0597 36.0483L37.0248 37.6405C36.9493 37.7527 36.8467 37.844 36.7265 37.906C36.6063 37.968 36.4725 37.9986 36.3373 37.9951C36.2016 37.9912 36.0694 37.9516 35.9538 37.8805C35.8382 37.8094 35.7433 37.7091 35.6787 37.5898L34.9116 36.222C34.6628 35.7761 34.3026 35.4024 33.8662 35.1373C33.4298 34.8722 32.9321 34.7248 32.4217 34.7095C31.9113 34.6942 31.4057 34.8115 30.9542 35.0499C30.5027 35.2884 30.1208 35.6399 29.8457 36.07L28.8035 37.6839C28.7312 37.7963 28.6315 37.8884 28.5138 37.9517C28.396 38.015 28.2642 38.0474 28.1305 38.0457C27.9968 38.0447 27.8657 38.0088 27.7502 37.9415C27.6347 37.8742 27.5388 37.7779 27.4719 37.6622L26.6252 36.2148C26.3638 35.7722 25.9911 35.4058 25.5442 35.1519C25.0973 34.8979 24.5918 34.7654 24.0778 34.7674C23.5585 34.7645 23.048 34.9014 22.5998 35.1637C22.1516 35.426 21.7822 35.804 21.5303 36.2582L20.7487 37.6405C20.6826 37.758 20.5872 37.8564 20.4718 37.9261C20.3564 37.9959 20.225 38.0346 20.0902 38.0385C19.957 38.041 19.8252 38.0105 19.7066 37.95C19.5879 37.8894 19.486 37.8005 19.4099 37.6911L18.2086 35.8819C17.9317 35.4642 17.553 35.1238 17.1083 34.8928C16.6636 34.6619 16.1674 34.5479 15.6664 34.5617C15.1655 34.5754 14.6763 34.7164 14.2449 34.9715C13.8135 35.2265 13.4541 35.5871 13.2005 36.0194L11.6374 38.6753C11.5032 38.9197 11.4682 39.2063 11.5396 39.4758C11.611 39.7452 11.7834 39.9769 12.0209 40.1227C12.1861 40.2247 12.3769 40.2774 12.5709 40.2747C12.7602 40.2773 12.9468 40.2289 13.111 40.1347C13.2752 40.0405 13.4111 39.9039 13.5045 39.7392L15.0749 37.0832C15.1422 36.9694 15.2372 36.8745 15.3511 36.8075C15.4651 36.7404 15.5941 36.7033 15.7263 36.6996C15.8596 36.6897 15.9931 36.7169 16.1119 36.7783C16.2307 36.8396 16.3302 36.9326 16.3993 37.047L17.6079 38.8563C17.8828 39.2803 18.2639 39.6251 18.7134 39.8561C19.1628 40.0872 19.6649 40.1966 20.1698 40.1734C20.6743 40.161 21.1668 40.0168 21.5984 39.7553C22.03 39.4938 22.3858 39.124 22.6304 38.6826L23.4192 37.3003C23.4888 37.1817 23.5882 37.0834 23.7075 37.0151C23.8269 36.9468 23.962 36.9108 24.0995 36.9108C24.237 36.9108 24.3721 36.9468 24.4914 37.0151C24.6108 37.0834 24.7102 37.1817 24.7798 37.3003L25.6265 38.7477C25.8833 39.1819 26.247 39.5431 26.683 39.7968C27.119 40.0505 27.6127 40.1883 28.1171 40.197C28.6215 40.2057 29.1196 40.0851 29.5641 39.8466C30.0086 39.6081 30.3846 39.2596 30.6562 38.8346L31.6911 37.2135C31.7678 37.0934 31.8756 36.9964 32.003 36.9327C32.1305 36.869 32.2727 36.841 32.4148 36.8516C32.5505 36.8555 32.6827 36.895 32.7983 36.9662C32.9139 37.0373 33.0087 37.1376 33.0734 37.2569L33.8405 38.6319C34.088 39.0786 34.4471 39.4535 34.8828 39.7199C35.3185 39.9863 35.8158 40.1352 36.3262 40.1519C36.8366 40.1687 37.3427 40.0528 37.7949 39.8156C38.2471 39.5783 38.6301 39.2279 38.9064 38.7984L39.9413 37.2135C40.0147 37.0989 40.1167 37.0055 40.2373 36.9424C40.3579 36.8794 40.4929 36.8489 40.6288 36.854C40.7648 36.8592 40.8971 36.8997 41.0126 36.9716C41.1281 37.0435 41.2228 37.1444 41.2874 37.2641L42.5611 39.5944C42.7044 39.8371 42.9364 40.0145 43.2082 40.0892C43.4799 40.1639 43.77 40.13 44.0172 39.9946C44.2643 39.8593 44.4492 39.6331 44.5327 39.364C44.6161 39.0948 44.5917 38.8038 44.4644 38.5523L43.1256 36.2437Z" fill="url(#paint3_linear_46_509)"/>
<defs>
<linearGradient id="paint0_linear_46_509" x1="-2.55524e-06" y1="28.959" x2="55.8553" y2="26.1157" gradientUnits="userSpaceOnUse">
<stop stop-color="#CC0087"/>
<stop offset="1" stop-color="#4441DC"/>
</linearGradient>
<linearGradient id="paint1_linear_46_509" x1="14.5537" y1="21.8918" x2="21.4833" y2="21.539" gradientUnits="userSpaceOnUse">
<stop stop-color="#CC0087"/>
<stop offset="1" stop-color="#4441DC"/>
</linearGradient>
<linearGradient id="paint2_linear_46_509" x1="34.5059" y1="21.8918" x2="41.4354" y2="21.5391" gradientUnits="userSpaceOnUse">
<stop stop-color="#CC0087"/>
<stop offset="1" stop-color="#4441DC"/>
</linearGradient>
<linearGradient id="paint3_linear_46_509" x1="11.5034" y1="37.4645" x2="41.9388" y2="28.4963" gradientUnits="userSpaceOnUse">
<stop stop-color="#CC0087"/>
<stop offset="1" stop-color="#4441DC"/>
</linearGradient>
</defs>
</svg>
