<svg width="56" height="58" viewBox="0 0 56 58" fill="none" xmlns="http://www.w3.org/2000/svg">
<path d="M23.7285 57.7865C23.5367 57.7865 23.3422 57.7571 23.1533 57.6955C22.3905 57.4464 21.874 56.7354 21.874 55.9335V47.578C9.10567 45.1567 0 35.5318 0 24.1854C0 10.9664 12.5612 0.213379 28 0.213379C43.4388 0.213379 56 10.9664 56 24.1854C56 36.219 45.6837 46.2988 31.8684 47.9279L25.2218 57.0265C24.8705 57.5136 24.3093 57.7865 23.7285 57.7865ZM28.0028 3.91947C14.6074 3.91947 3.70889 13.0111 3.70889 24.1854C3.70889 34.1308 12.2365 42.5353 23.9846 44.17C24.8999 44.2974 25.5829 45.0811 25.5829 46.0062V50.2554L29.3646 45.0783C29.6781 44.6486 30.161 44.3743 30.6914 44.3267C43.0077 43.1931 52.2967 34.5353 52.2967 24.1868C52.2953 13.0111 41.3982 3.91947 28.0028 3.91947ZM19.6179 21.0937C18.014 21.0937 16.7138 22.3939 16.7138 23.9978C16.7138 25.6018 18.014 26.902 19.6179 26.902C21.2218 26.902 22.522 25.6018 22.522 23.9978C22.522 22.3925 21.2218 21.0937 19.6179 21.0937ZM28.4073 21.0937C26.8034 21.0937 25.5031 22.3939 25.5031 23.9978C25.5031 25.6018 26.8034 26.902 28.4073 26.902C30.0112 26.902 31.3114 25.6018 31.3114 23.9978C31.3114 22.3925 30.0112 21.0937 28.4073 21.0937ZM37.198 21.0937C35.5941 21.0937 34.2939 22.3939 34.2939 23.9978C34.2939 25.6018 35.5941 26.902 37.198 26.902C38.802 26.902 40.1022 25.6018 40.1022 23.9978C40.1008 22.3925 38.802 21.0937 37.198 21.0937Z" fill="url(#paint0_linear_46_517)"/>
<defs>
<linearGradient id="paint0_linear_46_517" x1="-2.55524e-06" y1="29.4718" x2="55.863" y2="26.7059" gradientUnits="userSpaceOnUse">
<stop stop-color="#CC0087"/>
<stop offset="1" stop-color="#4441DC"/>
</linearGradient>
</defs>
</svg>
