<svg width="56" height="57" viewBox="0 0 56 57" fill="none" xmlns="http://www.w3.org/2000/svg">
<path d="M49.1556 0.5H6.84444C3.04889 0.5 0 3.36222 0 6.90889V39.0778C0 42.6244 3.04889 45.4867 6.84444 45.4867H11.3244V55.0067C11.3244 55.5667 11.6978 56.1267 12.2578 56.3756C12.5067 56.5 12.6933 56.5 12.9422 56.5C13.3156 56.5 13.6889 56.3756 14 56.1889L28.1244 45.4867H49.1556C52.9511 45.4867 56 42.6244 56 39.0778V6.90889C56 3.36222 52.9511 0.5 49.1556 0.5ZM52.8267 39.0156C52.8267 40.8822 51.2089 42.3756 49.2178 42.3756H27.5022C27.1289 42.3756 26.7556 42.5 26.4444 42.6867L14.56 51.7089V43.8689C14.56 43.06 13.8133 42.3756 12.9422 42.3756H6.84444C4.85333 42.3756 3.23556 40.8822 3.23556 39.0156V7.03333C3.23556 5.16667 4.85333 3.67333 6.84444 3.67333H49.28C51.2711 3.67333 52.8889 5.16667 52.8889 7.03333V39.0156H52.8267Z" fill="url(#paint0_linear_46_521)"/>
<path d="M13.3778 23.1489H19.2889V21.0333H13.3778V18.42H19.8489V16.2422H10.8267V28.5H20.16V26.3222H13.3778V23.1489Z" fill="url(#paint1_linear_46_521)"/>
<path d="M29.68 24.7666L24.7644 16.2422H22.0889V28.5H24.5155V19.7889L29.4933 28.5H32.0444V16.2422H29.68V24.7666Z" fill="url(#paint2_linear_46_521)"/>
<path d="M40.1959 23.9578H43.0581C42.9336 24.7667 42.6225 25.3889 42.0625 25.8867C41.5025 26.3845 40.8181 26.6333 39.947 26.6333C39.0759 26.6333 38.267 26.3222 37.5825 25.7C36.8981 25.0778 36.5247 24.02 36.5247 22.5267C36.5247 21.0333 36.8359 19.9133 37.4581 19.1667C38.0803 18.42 38.8892 18.0467 39.8847 18.0467C40.3825 18.0467 40.8803 18.1089 41.3159 18.2956C42.0625 18.6067 42.5603 19.2289 42.747 20.0378H45.2981C45.1736 18.8556 44.6136 17.86 43.6803 17.0511C42.747 16.2422 41.5025 15.8689 39.947 15.8689C38.1425 15.8689 36.7114 16.4911 35.5914 17.6733C34.4714 18.8556 33.9736 20.4733 33.9736 22.4645C33.9736 24.4556 34.5336 25.9489 35.5914 27.1311C36.6492 28.2511 37.9559 28.8111 39.5736 28.8111C40.5692 28.8111 41.3781 28.6245 42.0625 28.1889C42.4359 27.94 42.8714 27.5667 43.3692 26.9445L43.5559 28.5H45.2359V21.9045H40.1336V23.9578H40.1959Z" fill="url(#paint3_linear_46_521)"/>
<defs>
<linearGradient id="paint0_linear_46_521" x1="-2.55524e-06" y1="28.959" x2="55.8553" y2="26.1157" gradientUnits="userSpaceOnUse">
<stop stop-color="#CC0087"/>
<stop offset="1" stop-color="#4441DC"/>
</linearGradient>
<linearGradient id="paint1_linear_46_521" x1="10.8267" y1="22.4715" x2="20.146" y2="22.1103" gradientUnits="userSpaceOnUse">
<stop stop-color="#CC0087"/>
<stop offset="1" stop-color="#4441DC"/>
</linearGradient>
<linearGradient id="paint2_linear_46_521" x1="22.0889" y1="22.4715" x2="32.0274" y2="22.0606" gradientUnits="userSpaceOnUse">
<stop stop-color="#CC0087"/>
<stop offset="1" stop-color="#4441DC"/>
</linearGradient>
<linearGradient id="paint3_linear_46_521" x1="33.9736" y1="22.4461" x2="45.2757" y2="21.9427" gradientUnits="userSpaceOnUse">
<stop stop-color="#CC0087"/>
<stop offset="1" stop-color="#4441DC"/>
</linearGradient>
</defs>
</svg>
