<svg width="57" height="57" viewBox="0 0 57 57" fill="none" xmlns="http://www.w3.org/2000/svg">
<mask id="mask0_46_536" style="mask-type:luminance" maskUnits="userSpaceOnUse" x="0" y="0" width="57" height="57">
<path d="M56.0663 0.5H0V56.5H56.0663V0.5Z" fill="white"/>
</mask>
<g mask="url(#mask0_46_536)">
<path fill-rule="evenodd" clip-rule="evenodd" d="M16.9963 19.3284C17.0405 18.7331 17.2171 18.226 17.5261 17.8291C17.8572 17.4543 18.2766 17.1016 18.8064 16.815C19.2037 16.5945 19.4023 16.2638 19.4023 15.8228C19.4023 15.5142 19.314 15.2717 19.1375 15.0732C18.9609 14.8748 18.696 14.7866 18.3649 14.7866C17.8793 14.7866 17.3274 15.0512 16.7094 15.5583C16.0913 16.0654 15.5616 16.7488 15.1201 17.6307C14.7007 18.5126 14.48 19.4606 14.48 20.4528C14.48 21.5551 14.7228 22.3929 15.2084 22.9882C15.7161 23.5835 16.3341 23.8701 17.0626 23.8701C17.7468 23.8701 18.3207 23.6496 18.7843 23.2307C19.2478 22.8118 19.4686 22.2827 19.4686 21.6433C19.4686 20.9819 19.2478 20.4307 18.7843 19.9898C18.3207 19.5488 17.791 19.3284 17.2171 19.3284H16.9963ZM23.7508 19.3284C23.817 18.711 23.9715 18.226 24.2585 17.8512C24.5454 17.4764 24.9648 17.1236 25.5167 16.815C25.914 16.5945 26.1126 16.2858 26.1126 15.8228C26.1126 15.5142 26.0244 15.2496 25.8478 15.0732C25.6712 14.8748 25.4284 14.7866 25.0752 14.7866C24.722 14.7866 24.3026 14.941 23.8391 15.2276C23.3755 15.5362 22.9562 15.9331 22.5588 16.4402C22.1615 16.9693 21.8304 17.5646 21.5655 18.248C21.3227 18.9315 21.1903 19.6811 21.1903 20.4528C21.1903 21.5331 21.4331 22.3709 21.9187 22.9882C22.4043 23.6055 23.0224 23.8921 23.7729 23.8921C24.4571 23.8921 25.031 23.6937 25.4946 23.2528C25.9581 22.8118 26.1789 22.2827 26.1789 21.6433C26.1789 20.9819 25.9581 20.4307 25.4946 19.9898C25.031 19.5488 24.5013 19.3284 23.9495 19.3284H23.7508Z" fill="url(#paint0_linear_46_536)"/>
<path fill-rule="evenodd" clip-rule="evenodd" d="M50.1725 46.4023C50.2388 46.4905 50.305 46.5787 50.3712 46.6669C51.7839 48.4307 49.2675 50.5913 47.8769 48.7173C47.7886 48.6291 47.7224 48.5409 47.6562 48.4527L50.1725 46.4023ZM46.9719 47.5708C45.8903 46.1598 44.7866 44.7488 43.705 43.3377H24.0377L13.4866 52.6196C13.4204 52.6858 13.3542 52.7299 13.2659 52.774C13.0451 52.9062 12.8244 52.9503 12.5595 52.9503C12.2946 52.9503 12.0739 52.9062 11.8532 52.774C11.6324 52.6417 11.4779 52.4874 11.3455 52.2669C11.213 52.0464 11.1689 51.8259 11.1689 51.5614V42.985C10.7274 42.8307 10.308 42.6322 9.91071 42.4118C9.16021 41.9929 8.47594 41.4417 7.87996 40.7803C7.30605 40.1409 6.82043 39.3913 6.46726 38.6196C6.11409 37.8039 5.9375 36.922 5.9375 36.0622V12.6259C5.9375 12.1409 5.98165 11.6779 6.09201 11.2149C6.20238 10.7519 6.35689 10.311 6.55555 9.89207C6.95287 9.05428 7.50471 8.28263 8.16691 7.59916C8.82911 6.93774 9.60168 6.38656 10.4405 5.98971C10.8599 5.79129 11.3013 5.63696 11.7649 5.52672C12.2284 5.41648 12.692 5.35034 13.1776 5.35034H40.7031C40.9679 5.35034 41.1887 5.41648 41.4094 5.54877C41.4315 5.57081 41.4535 5.57081 41.4756 5.59286C41.4977 5.59286 41.4977 5.61491 41.5198 5.61491C41.6301 5.68105 41.7184 5.74719 41.8288 5.85743L52.0267 16.3299C52.0929 16.4181 52.1591 16.4842 52.2254 16.5944C52.2474 16.6385 52.2695 16.6826 52.2916 16.7267C52.4019 16.9472 52.4682 17.1456 52.4682 17.3881V36.0622V36.2826V41.9267C52.4682 42.1913 52.4019 42.4118 52.2695 42.6322C52.1371 42.8527 51.9825 43.007 51.7618 43.1393C51.5411 43.2716 51.3203 43.3377 51.0555 43.3377H47.7445C48.3184 44.0653 48.8923 44.7929 49.4662 45.5204L46.9719 47.5708ZM13.2659 40.67C13.4866 40.8023 13.6411 40.9566 13.7735 41.1771C13.906 41.3976 13.9722 41.6181 13.9722 41.8826V48.4527L22.5808 40.8685C22.647 40.8023 22.7133 40.7582 22.8016 40.7141C23.0223 40.5818 23.243 40.5377 23.5079 40.5377H41.5418C38.584 36.6574 35.6041 32.7992 32.6242 28.9629C32.0503 27.3314 31.4985 25.6999 30.9466 24.1125C32.271 25.0606 33.5954 26.0086 34.9419 26.9566C38.4736 31.4763 42.0275 36.0181 45.5592 40.5377H49.6648V36.2826V36.0622V18.711H40.8134C40.5485 18.711 40.3278 18.6448 40.1071 18.5125C39.8863 18.3803 39.7318 18.2259 39.5994 18.0055C39.4669 17.785 39.4228 17.5645 39.4228 17.2999V8.17239H13.1776C12.9127 8.17239 12.6699 8.19444 12.405 8.26058C12.1401 8.32672 11.8752 8.41491 11.6104 8.52515C11.0806 8.78971 10.5729 9.14247 10.1535 9.58341C9.71205 10.0244 9.35887 10.5094 9.09399 11.0606C8.98362 11.3251 8.89533 11.5897 8.82911 11.8543C8.76289 12.1188 8.74082 12.3614 8.74082 12.6259V36.0622C8.74082 36.5472 8.85118 37.0322 9.04984 37.5173C9.27058 38.0023 9.57961 38.4874 9.95485 38.9062C10.3522 39.3251 10.7936 39.6999 11.3013 39.9866C11.7428 40.2511 12.2505 40.4275 12.7582 40.4936C12.9348 40.5157 13.0893 40.5818 13.2659 40.67Z" fill="url(#paint1_linear_46_536)"/>
</g>
<defs>
<linearGradient id="paint0_linear_46_536" x1="14.48" y1="19.414" x2="26.129" y2="18.6521" gradientUnits="userSpaceOnUse">
<stop stop-color="#CC0087"/>
<stop offset="1" stop-color="#4441DC"/>
</linearGradient>
<linearGradient id="paint1_linear_46_536" x1="5.9375" y1="29.5405" x2="52.3532" y2="27.2308" gradientUnits="userSpaceOnUse">
<stop stop-color="#CC0087"/>
<stop offset="1" stop-color="#4441DC"/>
</linearGradient>
</defs>
</svg>
