<svg width="44" height="43" viewBox="0 0 44 43" fill="none" xmlns="http://www.w3.org/2000/svg">
<g clip-path="url(#clip0_46_566)">
<path d="M18.2207 0.613099C17.7168 0.0839977 16.961 -0.117565 16.2555 0.0672009C15.55 0.251966 15.0041 0.814662 14.8194 1.52013L13.4924 6.76915L8.28536 5.29943C7.5799 5.09786 6.82404 5.29943 6.31173 5.81173C5.79943 6.32404 5.59786 7.0799 5.79943 7.78536L7.26915 12.9924L2.02013 14.3277C1.31466 14.5041 0.760365 15.0584 0.567201 15.7639C0.374037 16.4693 0.583998 17.2168 1.1131 17.7207L4.99318 21.5L1.1131 25.2793C0.583998 25.7832 0.382435 26.5391 0.567201 27.2445C0.751966 27.95 1.31466 28.4959 2.02013 28.6807L7.26915 30.0076L5.79943 35.2147C5.59786 35.9201 5.79943 36.676 6.31173 37.1883C6.82404 37.7006 7.5799 37.9022 8.28536 37.7006L13.4924 36.2309L14.8194 41.4799C14.9957 42.1854 15.55 42.7397 16.2555 42.9328C16.961 43.126 17.7084 42.916 18.2207 42.3953L22 38.5152L25.7793 42.3953C26.2916 42.916 27.0391 43.126 27.7445 42.9328C28.45 42.7397 28.9959 42.1854 29.1807 41.4799L30.5076 36.2309L35.7147 37.7006C36.4201 37.9022 37.176 37.7006 37.6883 37.1883C38.2006 36.676 38.4022 35.9201 38.2006 35.2147L36.7309 30.0076L41.9799 28.6807C42.6854 28.5043 43.2397 27.95 43.4328 27.2445C43.626 26.5391 43.416 25.7916 42.8953 25.2793L39.0152 21.5L42.8953 17.7207C43.416 17.2084 43.626 16.461 43.4328 15.7555C43.2397 15.05 42.6854 14.5041 41.9799 14.3194L36.7309 12.9924L38.2006 7.78536C38.4022 7.0799 38.2006 6.32404 37.6883 5.81173C37.176 5.29943 36.4201 5.09786 35.7147 5.29943L30.5076 6.76915L29.1723 1.52013C28.9959 0.814662 28.4416 0.260365 27.7361 0.0672009C27.0307 -0.125963 26.2832 0.0839977 25.7793 0.613099L22 4.49318L18.2207 0.613099Z" fill="url(#paint0_linear_46_566)"/>
</g>
<defs>
<linearGradient id="paint0_linear_46_566" x1="0.5" y1="43" x2="43.5" y2="-1.0527e-10" gradientUnits="userSpaceOnUse">
<stop stop-color="#FFC46C"/>
<stop offset="1" stop-color="#FF8753"/>
</linearGradient>
<clipPath id="clip0_46_566">
<rect width="43" height="43" fill="white" transform="translate(0.5)"/>
</clipPath>
</defs>
</svg>
