<svg width="32" height="32" viewBox="0 0 32 32" fill="none" xmlns="http://www.w3.org/2000/svg">
<path d="M23.6201 4.90007C23.0576 4.33826 22.2951 4.02271 21.5001 4.02271C20.7051 4.02271 19.9426 4.33826 19.3801 4.90007L15.9221 8.35007C15.7742 7.68369 15.4035 7.08768 14.8712 6.66042C14.3389 6.23317 13.6767 6.00023 12.9941 6.00007H6.99414C6.19849 6.00007 5.43543 6.31614 4.87282 6.87875C4.31021 7.44135 3.99414 8.20442 3.99414 9.00007V24.9961C3.99414 26.0161 4.50414 26.9201 5.28214 27.4601C5.76814 27.8001 6.36214 28.0001 7.00014 28.0001H23.0001C23.7958 28.0001 24.5588 27.684 25.1215 27.1214C25.6841 26.5588 26.0001 25.7957 26.0001 25.0001V19.0001C26 18.3351 25.7789 17.689 25.3716 17.1634C24.9644 16.6377 24.394 16.2623 23.7501 16.0961L27.1601 12.6801C27.7225 12.1175 28.0385 11.3546 28.0385 10.5591C28.0385 9.76357 27.7225 9.00065 27.1601 8.43807L23.6201 4.89807V4.90007ZM15.9941 12.8401L19.1541 16.0001H15.9941V12.8401ZM13.9941 16.0001H5.99414V9.00007C5.99414 8.73485 6.0995 8.4805 6.28703 8.29296C6.47457 8.10542 6.72892 8.00007 6.99414 8.00007H12.9941C13.2594 8.00007 13.5137 8.10542 13.7012 8.29296C13.8888 8.4805 13.9941 8.73485 13.9941 9.00007V16.0001ZM6.42214 25.8201C6.29115 25.7273 6.18442 25.6043 6.11097 25.4616C6.03752 25.3189 5.99951 25.1606 6.00014 25.0001V18.0001H13.9941V25.9961H6.99414C6.78949 25.9964 6.58973 25.9335 6.42214 25.8161V25.8201ZM15.9941 26.0001V18.0001H23.0001C23.2654 18.0001 23.5197 18.1054 23.7072 18.293C23.8948 18.4805 24.0001 18.7348 24.0001 19.0001V25.0001C24.0001 25.2653 23.8948 25.5196 23.7072 25.7072C23.5197 25.8947 23.2654 26.0001 23.0001 26.0001H15.9941Z" fill="url(#paint0_linear_46_483)"/>
<defs>
<linearGradient id="paint0_linear_46_483" x1="3.99414" y1="16.2079" x2="27.976" y2="14.9837" gradientUnits="userSpaceOnUse">
<stop stop-color="#CC0087"/>
<stop offset="1" stop-color="#4441DC"/>
</linearGradient>
</defs>
</svg>
