<svg width="32" height="32" viewBox="0 0 32 32" fill="none" xmlns="http://www.w3.org/2000/svg">
<path fill-rule="evenodd" clip-rule="evenodd" d="M4.6185 4.61875C2.6665 6.57341 2.6665 9.71475 2.6665 16.0001C2.6665 22.2854 2.6665 25.4281 4.6185 27.3801C6.57317 29.3334 9.7145 29.3334 15.9998 29.3334C22.2852 29.3334 25.4278 29.3334 27.3798 27.3801C29.3332 25.4294 29.3332 22.2854 29.3332 16.0001C29.3332 9.71475 29.3332 6.57208 27.3798 4.61875C25.4292 2.66675 22.2852 2.66675 15.9998 2.66675C9.7145 2.66675 6.57184 2.66675 4.6185 4.61875ZM23.4345 13.9734C23.5968 13.7689 23.6726 13.5091 23.6459 13.2494C23.6191 12.9897 23.4919 12.7508 23.2913 12.5836C23.0908 12.4165 22.8328 12.3344 22.5726 12.3549C22.3123 12.3755 22.0704 12.4969 21.8985 12.6934L19.5025 15.5681C19.0092 16.1614 18.7038 16.5227 18.4545 16.7481C18.3896 16.8118 18.3165 16.8665 18.2372 16.9107L18.2225 16.9174L18.2118 16.9121L18.2078 16.9107C18.128 16.8665 18.0545 16.8118 17.9892 16.7481C17.7398 16.5214 17.4358 16.1614 16.9412 15.5681L16.5518 15.1014C16.1132 14.5747 15.7185 14.1014 15.3505 13.7681C14.9492 13.4054 14.4438 13.0827 13.7772 13.0827C13.1105 13.0827 12.6065 13.4054 12.2038 13.7681C11.8358 14.1014 11.4412 14.5747 11.0038 15.1014L8.56384 18.0267C8.47979 18.1277 8.41645 18.2442 8.37743 18.3696C8.33841 18.495 8.32448 18.6269 8.33643 18.7577C8.36056 19.0219 8.48864 19.2657 8.6925 19.4354C8.89637 19.6052 9.15931 19.687 9.42348 19.6628C9.68766 19.6387 9.93143 19.5106 10.1012 19.3067L12.4972 16.4321C12.9905 15.8387 13.2958 15.4774 13.5452 15.2521C13.61 15.1884 13.6831 15.1337 13.7625 15.0894L13.7718 15.0854L13.7772 15.0827L13.7918 15.0894C13.8717 15.1336 13.9452 15.1883 14.0105 15.2521C14.2598 15.4787 14.5638 15.8387 15.0585 16.4321L15.4478 16.8987C15.8865 17.4254 16.2812 17.8987 16.6492 18.2321C17.0505 18.5947 17.5558 18.9174 18.2225 18.9174C18.8892 18.9174 19.3932 18.5947 19.7958 18.2321C20.1638 17.8987 20.5585 17.4254 20.9958 16.8987L23.4345 13.9734Z" fill="url(#paint0_linear_46_487)"/>
<defs>
<linearGradient id="paint0_linear_46_487" x1="2.6665" y1="16.2186" x2="29.2642" y2="14.8647" gradientUnits="userSpaceOnUse">
<stop stop-color="#CC0087"/>
<stop offset="1" stop-color="#4441DC"/>
</linearGradient>
</defs>
</svg>
