<svg width="32" height="32" viewBox="0 0 32 32" fill="none" xmlns="http://www.w3.org/2000/svg">
<g clip-path="url(#clip0_46_491)">
<path fill-rule="evenodd" clip-rule="evenodd" d="M14.1146 2.80008C14.5866 2.32872 15.2181 2.05136 15.8846 2.02272C16.551 1.99409 17.204 2.21627 17.7146 2.64542L17.8853 2.80142L20.4186 5.33342H24C24.6725 5.33354 25.3202 5.58778 25.8132 6.0452C26.3062 6.50262 26.6082 7.12944 26.6586 7.80009L26.6666 8.00009V11.5814L29.2 14.1148C29.6717 14.5868 29.9493 15.2186 29.9779 15.8853C30.0066 16.5521 29.7842 17.2053 29.3546 17.7161L29.1986 17.8854L26.6653 20.4188V24.0001C26.6655 24.6729 26.4114 25.3208 25.954 25.8142C25.4965 26.3075 24.8695 26.6096 24.1986 26.6601L24 26.6668H20.42L17.8866 29.2001C17.4146 29.6718 16.7828 29.9494 16.1161 29.9781C15.4493 30.0067 14.7961 29.7843 14.2853 29.3548L14.116 29.2001L11.5826 26.6668H7.99996C7.32719 26.667 6.67921 26.4129 6.1859 25.9554C5.69259 25.498 5.39042 24.871 5.33996 24.2001L5.33329 24.0001V20.4188L2.79996 17.8854C2.32822 17.4134 2.05062 16.7816 2.02199 16.1148C1.99335 15.4481 2.21576 14.7948 2.64529 14.2841L2.79996 14.1148L5.33329 11.5814V8.00009C5.33342 7.32755 5.58766 6.67989 6.04508 6.18686C6.5025 5.69384 7.12932 5.39186 7.79996 5.34142L7.99996 5.33342H11.5813L14.1146 2.80008ZM20.1053 11.9774L14.4466 17.6361L12.0893 15.2788C11.8391 15.0287 11.4999 14.8884 11.1462 14.8885C10.7925 14.8886 10.4533 15.0292 10.2033 15.2794C9.95328 15.5296 9.8129 15.8689 9.81302 16.2226C9.81315 16.5763 9.95377 16.9154 10.204 17.1654L13.4093 20.3708C13.5455 20.507 13.7072 20.6151 13.8852 20.6889C14.0632 20.7626 14.254 20.8006 14.4466 20.8006C14.6393 20.8006 14.8301 20.7626 15.0081 20.6889C15.186 20.6151 15.3478 20.507 15.484 20.3708L21.9906 13.8628C22.2335 13.6113 22.3679 13.2745 22.3649 12.9249C22.3618 12.5753 22.2216 12.2409 21.9744 11.9937C21.7272 11.7464 21.3928 11.6062 21.0432 11.6032C20.6936 11.6001 20.3568 11.7345 20.1053 11.9774Z" fill="url(#paint0_linear_46_491)"/>
</g>
<defs>
<linearGradient id="paint0_linear_46_491" x1="2.01953" y1="16.2295" x2="29.9081" y2="14.8099" gradientUnits="userSpaceOnUse">
<stop stop-color="#CC0087"/>
<stop offset="1" stop-color="#4441DC"/>
</linearGradient>
<clipPath id="clip0_46_491">
<rect width="32" height="32" fill="white"/>
</clipPath>
</defs>
</svg>
